<svg width="3999" height="1109" xmlns="http://www.w3.org/2000/svg" xmlns:xlink="http://www.w3.org/1999/xlink" xml:space="preserve" overflow="hidden"><defs><clipPath id="clip0"><rect x="493" y="634" width="3999" height="1109"/></clipPath><clipPath id="clip1"><rect x="492" y="862" width="388" height="517"/></clipPath><clipPath id="clip2"><rect x="492" y="862" width="388" height="517"/></clipPath><clipPath id="clip3"><rect x="492" y="862" width="388" height="517"/></clipPath></defs><g clip-path="url(#clip0)" transform="translate(-493 -634)"><text fill="#FED136" font-family="Bierstadt,Bierstadt_MSFontService,sans-serif" font-weight="700" font-size="527" transform="matrix(1 0 0 1 1027.58 1289)">Citizen Voice</text><g clip-path="url(#clip1)"><g clip-path="url(#clip2)"><g clip-path="url(#clip3)"><path d="M589.75 958.75 589.75 1120C589.75 1173.41 633.086 1216.75 686.5 1216.75 739.914 1216.75 783.25 1173.41 783.25 1120L702.625 1120C693.756 1120 686.5 1112.74 686.5 1103.88 686.5 1095.01 693.756 1087.75 702.625 1087.75L783.25 1087.75 783.25 1055.5 702.625 1055.5C693.756 1055.5 686.5 1048.24 686.5 1039.38 686.5 1030.51 693.756 1023.25 702.625 1023.25L783.25 1023.25 783.25 991 702.625 991C693.756 991 686.5 983.744 686.5 974.875 686.5 966.006 693.756 958.75 702.625 958.75L783.25 958.75C783.25 905.336 739.914 862 686.5 862 633.086 862 589.75 905.336 589.75 958.75ZM815.5 1103.88 815.5 1120C815.5 1191.25 757.752 1249 686.5 1249 615.248 1249 557.5 1191.25 557.5 1120L557.5 1079.69C557.5 1066.28 546.716 1055.5 533.312 1055.5 519.909 1055.5 509.125 1066.28 509.125 1079.69L509.125 1120C509.125 1209.8 575.842 1283.97 662.312 1295.76L662.312 1329.62 613.937 1329.62C600.534 1329.62 589.75 1340.41 589.75 1353.81 589.75 1367.22 600.534 1378 613.937 1378L686.5 1378 759.062 1378C772.466 1378 783.25 1367.22 783.25 1353.81 783.25 1340.41 772.466 1329.62 759.062 1329.62L710.688 1329.62 710.688 1295.76C797.158 1283.97 863.875 1209.8 863.875 1120L863.875 1079.69C863.875 1066.28 853.091 1055.5 839.688 1055.5 826.284 1055.5 815.5 1066.28 815.5 1079.69L815.5 1103.88Z" fill="#FED136"/></g></g></g></g></svg>